<?xml version="1.0" encoding="UTF-8" standalone="no"?>
<!-- Created with Inkscape (http://www.inkscape.org/) -->

<svg
   width="185.60933mm"
   height="125.31758mm"
   viewBox="0 0 185.60933 125.31758"
   version="1.1"
   id="svg1"
   xmlns="http://www.w3.org/2000/svg"
   xmlns:svg="http://www.w3.org/2000/svg">
  <defs
     id="defs1" />
  <g
     id="layer1"
     transform="translate(-14.486329,-53.041115)">
    <g
       id="text1"
       style="font-size:3.03915px;font-family:Merriweather;-inkscape-font-specification:Merriweather;white-space:pre;inline-size:36.0518;stroke-width:0.264583"
       transform="matrix(8.7373112,0,0,8.6944082,-508.68918,-717.49195)"
       aria-label="A Day&#10;in&#10;Parker's Life">
      <path
         style="font-weight:600;font-family:'Merriweather 24pt';-inkscape-font-specification:'Merriweather 24pt, Semi-Bold'"
         d="m 61.615934,90.714916 0.740033,-2.086377 h 0.389011 l 0.695966,2.086377 0.183868,0.03039 v 0.158036 h -0.840325 v -0.158036 l 0.238574,-0.03039 -0.135243,-0.434599 h -0.841844 l -0.135242,0.436118 0.253769,0.02887 v 0.158036 h -0.733955 l -0.0015,-0.158036 z m 1.21566,-0.623026 -0.28568,-0.96645 -0.06078,-0.240092 -0.06838,0.246171 -0.316071,0.960371 z m 2.511856,0.835766 q -0.05774,-0.0015 -0.121566,-0.0061 -0.0623,-0.003 -0.127644,-0.0076 -0.06382,-0.0046 -0.126125,-0.0076 -0.06078,-0.003 -0.117007,-0.003 h -0.43156 V 90.74532 l 0.246171,-0.03039 v -1.869077 l -0.232495,-0.03799 v -0.162594 h 0.414844 q 0.09421,0 0.18083,-0.0046 0.08814,-0.0061 0.174751,-0.01064 0.08814,-0.0061 0.180829,-0.0061 0.290239,0 0.499941,0.07446 0.211221,0.07446 0.346463,0.21578 0.135242,0.14132 0.200584,0.340384 0.06534,0.199065 0.06534,0.446755 0,0.275043 -0.08206,0.50298 -0.08206,0.226416 -0.234014,0.39053 -0.151958,0.164115 -0.364698,0.25225 -0.211221,0.08662 -0.472588,0.08054 z m 0.02431,-0.17627 q 0.21426,-0.003 0.376855,-0.112449 0.162594,-0.109409 0.253769,-0.326708 0.09269,-0.218819 0.09269,-0.548567 0,-0.230975 -0.04711,-0.410285 -0.04559,-0.18083 -0.141321,-0.303915 -0.09573,-0.124605 -0.243132,-0.189947 -0.147398,-0.06534 -0.347982,-0.06534 -0.05926,0 -0.110929,0.0046 -0.05015,0.0046 -0.09117,0.01064 -0.04103,0.0046 -0.07142,0.0061 v 1.908586 q 0.05318,0.01216 0.10789,0.01823 0.0547,0.0061 0.10941,0.0076 0.0547,0.0015 0.112448,0.0015 z m 1.796137,0.185388 q -0.135242,0 -0.25073,-0.0547 -0.115487,-0.0547 -0.185388,-0.164114 -0.0699,-0.109409 -0.0699,-0.273523 0,-0.150438 0.08054,-0.255289 0.08206,-0.10637 0.221858,-0.171712 0.139801,-0.06686 0.319111,-0.09877 0.17931,-0.03343 0.375335,-0.03647 v -0.09877 q 0,-0.127644 -0.02735,-0.203623 -0.02735,-0.07598 -0.09877,-0.109409 -0.07142,-0.03343 -0.205143,-0.03343 -0.174751,0 -0.306954,0.05318 -0.130683,0.05319 -0.205142,0.09117 l -0.08206,-0.168673 q 0.03343,-0.02887 0.133722,-0.08358 0.101812,-0.0547 0.246171,-0.09877 0.14588,-0.04407 0.308474,-0.04407 0.217299,0 0.344944,0.06382 0.127644,0.0623 0.182349,0.196025 0.05622,0.132203 0.05622,0.340385 v 0.952773 l 0.171712,0.0015 v 0.144359 q -0.03343,0.0076 -0.09269,0.01824 -0.05774,0.01064 -0.124605,0.01823 -0.06534,0.0091 -0.120047,0.0091 -0.08814,0 -0.123085,-0.02735 -0.03495,-0.02583 -0.03495,-0.117007 v -0.09269 q -0.03647,0.04103 -0.110929,0.09877 -0.07294,0.05774 -0.174751,0.101812 -0.101811,0.04255 -0.227936,0.04255 z m 0.158036,-0.223378 q 0.07598,0 0.168673,-0.04255 0.09421,-0.04407 0.164114,-0.10789 V 90.04934 q -0.209702,0 -0.346463,0.04863 -0.135242,0.04711 -0.200584,0.127645 -0.06534,0.07902 -0.06534,0.17931 0,0.10637 0.03647,0.174751 0.03647,0.06838 0.09877,0.101811 0.06382,0.03191 0.14436,0.03191 z m 1.285562,0.955813 q -0.05015,0 -0.09269,-0.0076 -0.04103,-0.0076 -0.06382,-0.01823 V 91.34554 q 0.01976,0.01216 0.06382,0.01975 0.04407,0.0091 0.08966,0.0091 0.06838,0 0.127645,-0.02279 0.06078,-0.02279 0.115487,-0.07598 0.05471,-0.05318 0.106371,-0.14436 0.05166,-0.09117 0.100291,-0.227936 h -0.156516 l -0.57136,-1.489183 -0.138281,-0.03951 v -0.151958 h 0.770424 v 0.151958 l -0.226416,0.03799 0.290238,0.881354 0.124606,0.401167 0.113968,-0.402687 0.262886,-0.881353 -0.197545,-0.03647 v -0.151958 h 0.623026 v 0.151958 l -0.151957,0.03647 q -0.08358,0.255288 -0.158036,0.477146 -0.07294,0.221858 -0.135242,0.404207 -0.06078,0.182349 -0.10789,0.32063 -0.04711,0.136762 -0.07902,0.221858 -0.03039,0.0851 -0.04103,0.112449 -0.09117,0.234014 -0.179309,0.395089 -0.08814,0.161075 -0.203623,0.243132 -0.115488,0.08358 -0.285681,0.08358 z"
         id="path1" />
      <path
         style="font-weight:600;font-family:'Merriweather 24pt';-inkscape-font-specification:'Merriweather 24pt, Semi-Bold'"
         d="m 61.565788,94.70228 v -0.158035 l 0.229456,-0.02735 v -1.241493 l -0.220338,-0.05622 V 93.04747 l 0.49994,-0.0623 h 0.0091 l 0.07446,0.0547 v 1.480066 l 0.224898,0.02431 v 0.158035 z m 0.382933,-1.969369 q -0.103331,0 -0.156516,-0.0623 -0.05319,-0.06382 -0.05319,-0.147399 0,-0.09573 0.05774,-0.168673 0.05926,-0.07294 0.17627,-0.07294 h 0.003 q 0.103332,0 0.156517,0.0623 0.05318,0.0623 0.05318,0.145879 0,0.09573 -0.05926,0.170193 -0.05774,0.07294 -0.174751,0.07294 z m 0.809934,1.783981 v -1.241493 l -0.206662,-0.0547 v -0.176271 l 0.458912,-0.05926 h 0.01216 l 0.06686,0.0547 v 0.123086 l -0.003,0.07598 q 0.06534,-0.06078 0.165634,-0.118527 0.100292,-0.05774 0.218819,-0.09725 0.118527,-0.03951 0.238573,-0.03951 0.188427,0 0.296317,0.07142 0.10941,0.0699 0.154997,0.221858 0.04559,0.150438 0.04559,0.389011 v 0.854001 l 0.200584,0.02431 v 0.158035 h -0.743072 v -0.158035 l 0.17779,-0.02431 v -0.849442 q 0,-0.158036 -0.02583,-0.258328 -0.02431,-0.100292 -0.08966,-0.147399 -0.06382,-0.04863 -0.185388,-0.04863 -0.0775,0 -0.154996,0.02583 -0.07598,0.02583 -0.14436,0.06534 -0.06838,0.03799 -0.118527,0.0775 v 1.132083 l 0.196025,0.02735 v 0.158035 H 62.57331 v -0.158035 z"
         id="path5" />
      <path
         style="font-weight:600;font-family:'Merriweather 24pt';-inkscape-font-specification:'Merriweather 24pt, Semi-Bold'"
         d="m 61.824116,98.312788 v -1.869077 l -0.232495,-0.03799 v -0.162594 h 0.423961 q 0.08662,0 0.158036,-0.0046 0.07142,-0.0061 0.154997,-0.01064 0.08358,-0.0046 0.208182,-0.0046 0.313032,0 0.490822,0.0775 0.177791,0.0775 0.25073,0.224897 0.07446,0.145879 0.07446,0.354061 0,0.25073 -0.109409,0.42852 -0.109409,0.17779 -0.309993,0.272004 -0.199065,0.09421 -0.46499,0.09421 -0.05015,0 -0.10789,-0.0015 -0.05774,-0.0015 -0.103331,-0.003 -0.04407,-0.003 -0.05926,-0.0061 v 0.647338 l 0.405727,0.03191 v 0.158035 H 61.577945 V 98.34318 Z m 0.373815,-0.82209 q 0.03647,0.0061 0.104851,0.01064 0.06838,0.003 0.162595,0.003 0.135242,0 0.24769,-0.05622 0.113968,-0.05774 0.182349,-0.191467 0.06838,-0.135242 0.06838,-0.370776 0,-0.176271 -0.0547,-0.28416 -0.05318,-0.10941 -0.162594,-0.159556 -0.109409,-0.05166 -0.279602,-0.05166 -0.06382,0 -0.112448,0.0046 -0.04711,0.0046 -0.0851,0.0091 -0.03799,0.003 -0.07142,0.0061 z m 1.756627,1.043948 q -0.135242,0 -0.25073,-0.0547 -0.115487,-0.0547 -0.185388,-0.164114 -0.0699,-0.109409 -0.0699,-0.273523 0,-0.150438 0.08054,-0.255289 0.08206,-0.10637 0.221858,-0.171712 0.139801,-0.06686 0.319111,-0.09877 0.17931,-0.03343 0.375335,-0.03647 v -0.09877 q 0,-0.127645 -0.02735,-0.203623 -0.02735,-0.07598 -0.09877,-0.10941 -0.07142,-0.03343 -0.205142,-0.03343 -0.174751,0 -0.306954,0.05319 -0.130684,0.05318 -0.205143,0.09117 l -0.08206,-0.168673 q 0.03343,-0.02887 0.133722,-0.08358 0.101812,-0.0547 0.246172,-0.09877 0.145879,-0.04407 0.308473,-0.04407 0.2173,0 0.344944,0.06382 0.127644,0.0623 0.182349,0.196025 0.05622,0.132203 0.05622,0.340385 v 0.952773 l 0.171712,0.0015 v 0.144359 q -0.03343,0.0076 -0.09269,0.01824 -0.05774,0.01064 -0.124605,0.01824 -0.06534,0.0091 -0.120047,0.0091 -0.08813,0 -0.123085,-0.02735 -0.03495,-0.02583 -0.03495,-0.117007 v -0.09269 q -0.03647,0.04103 -0.110929,0.09877 -0.07294,0.05774 -0.174751,0.101812 -0.101812,0.04255 -0.227937,0.04255 z m 0.158036,-0.223378 q 0.07598,0 0.168673,-0.04255 0.09421,-0.04407 0.164114,-0.107889 v -0.513617 q -0.209701,0 -0.346463,0.04863 -0.135242,0.04711 -0.200584,0.127644 -0.06534,0.07902 -0.06534,0.17931 0,0.10637 0.03647,0.174751 0.03647,0.06838 0.09877,0.101811 0.06382,0.03191 0.14436,0.03191 z m 1.022675,0.189947 v -0.154996 l 0.21426,-0.02431 v -1.247571 l -0.208181,-0.0547 v -0.176271 l 0.439157,-0.05926 h 0.01064 l 0.0699,0.0547 v 0.06078 l -0.0091,0.267445 h 0.0091 q 0.01368,-0.03039 0.05622,-0.09117 0.04255,-0.06078 0.112449,-0.126125 0.07142,-0.06534 0.168673,-0.109409 0.09725,-0.04559 0.218819,-0.04559 0.04255,0 0.06838,0.0046 0.02735,0.0046 0.04407,0.01064 v 0.367738 q -0.02127,-0.01672 -0.0699,-0.02735 -0.04711,-0.01216 -0.124605,-0.01216 -0.112449,0 -0.192986,0.02735 -0.08054,0.02583 -0.136762,0.0623 -0.05622,0.03647 -0.09421,0.06534 v 1.027233 l 0.364698,0.02735 v 0.153477 z m 1.30076,0 V 98.34318 l 0.185388,-0.02735 v -2.066622 l -0.229456,-0.03343 v -0.141321 l 0.507538,-0.0623 h 0.0091 l 0.0699,0.05015 v 1.483106 l -0.0061,0.17779 0.657976,-0.712681 -0.232495,-0.03951 v -0.150438 h 0.761307 v 0.150438 l -0.238573,0.04255 -0.413325,0.428521 0.562243,0.876794 0.17931,0.02431 v 0.158035 H 67.484536 V 98.34318 l 0.17779,-0.02735 -0.399648,-0.654937 -0.291759,0.302396 0.0076,0.139801 v 0.21274 l 0.206662,0.02735 v 0.158035 z m 2.616703,0.03343 q -0.261367,0 -0.431559,-0.110929 -0.170193,-0.112449 -0.253769,-0.309993 -0.08206,-0.197545 -0.08206,-0.455873 0,-0.202103 0.05774,-0.364698 0.05926,-0.164114 0.165634,-0.278082 0.10789,-0.115488 0.253769,-0.176271 0.145879,-0.0623 0.32215,-0.0623 0.291758,0 0.449794,0.158036 0.159556,0.156516 0.167154,0.448274 0,0.09421 -0.0046,0.164114 -0.0046,0.0699 -0.01672,0.121566 H 68.66215 q 0.0046,0.14284 0.03647,0.259848 0.03343,0.117007 0.09573,0.202103 0.0623,0.08358 0.153477,0.129164 0.09118,0.04559 0.211221,0.04559 0.124605,0 0.25225,-0.04407 0.127644,-0.04559 0.197544,-0.09725 l 0.06382,0.14132 q -0.05167,0.0547 -0.148919,0.10789 -0.09725,0.05167 -0.220338,0.08662 -0.121566,0.03495 -0.25073,0.03495 z m -0.389011,-1.030272 0.668613,-0.0015 q 0.003,-0.02887 0.0046,-0.06534 0.003,-0.03647 0.003,-0.06686 0,-0.185389 -0.0699,-0.300876 -0.0699,-0.117008 -0.237053,-0.117008 -0.07598,0 -0.141321,0.02735 -0.06382,0.02735 -0.113968,0.09117 -0.04863,0.0623 -0.07902,0.168673 -0.02887,0.10637 -0.03495,0.264406 z m 1.230857,0.996841 v -0.154996 l 0.21426,-0.02431 v -1.247571 l -0.208181,-0.0547 v -0.176271 l 0.439157,-0.05926 h 0.01064 l 0.0699,0.0547 v 0.06078 l -0.0091,0.267445 h 0.0091 q 0.01368,-0.03039 0.05622,-0.09117 0.04255,-0.06078 0.112449,-0.126125 0.07142,-0.06534 0.168673,-0.109409 0.09725,-0.04559 0.218819,-0.04559 0.04255,0 0.06838,0.0046 0.02735,0.0046 0.04407,0.01064 v 0.367738 q -0.02127,-0.01672 -0.0699,-0.02735 -0.04711,-0.01216 -0.124605,-0.01216 -0.112449,0 -0.192986,0.02735 -0.08054,0.02583 -0.136762,0.0623 -0.05622,0.03647 -0.09421,0.06534 v 1.027233 l 0.364698,0.02735 v 0.153477 z m 2.008882,-2.516416 -0.329748,1.045468 H 71.40352 l 0.112448,-1.045468 z m 0.686847,2.549847 q -0.124605,0 -0.241612,-0.02279 -0.117007,-0.02279 -0.209701,-0.05166 -0.09269,-0.03039 -0.14436,-0.05015 V 98.01799 h 0.217299 l 0.06078,0.237054 q 0.01824,0.02735 0.06686,0.0547 0.04863,0.02735 0.113969,0.04407 0.06686,0.01671 0.136761,0.01671 0.110929,0 0.18083,-0.02887 0.0699,-0.03039 0.101811,-0.08358 0.03343,-0.05318 0.03343,-0.123085 0,-0.0851 -0.05622,-0.14284 -0.05622,-0.05774 -0.161075,-0.106371 -0.103331,-0.05015 -0.246171,-0.107889 -0.141321,-0.05774 -0.240093,-0.130684 -0.09725,-0.07294 -0.147399,-0.171712 -0.04863,-0.09877 -0.04863,-0.235534 0,-0.136762 0.08054,-0.238573 0.08054,-0.103331 0.221858,-0.161075 0.14284,-0.05774 0.326709,-0.05774 0.136761,0 0.237053,0.01975 0.100292,0.01976 0.168673,0.04255 0.06838,0.02127 0.10941,0.03039 v 0.384453 h -0.202104 l -0.06534,-0.226417 q -0.01368,-0.02431 -0.05166,-0.04407 -0.03647,-0.01975 -0.08814,-0.03191 -0.05166,-0.01368 -0.110929,-0.01368 -0.08814,0 -0.154996,0.02735 -0.06686,0.02583 -0.103331,0.07446 -0.03647,0.04863 -0.03647,0.113969 0,0.09877 0.0547,0.159555 0.05622,0.06078 0.145879,0.103331 0.08966,0.04103 0.189947,0.08206 0.09725,0.04103 0.189947,0.08814 0.09421,0.04559 0.168672,0.106371 0.07446,0.05926 0.118527,0.14284 0.04559,0.08206 0.04559,0.197545 0,0.144359 -0.07598,0.256808 -0.07598,0.110929 -0.224897,0.174751 -0.147399,0.06382 -0.36014,0.06382 z m 1.603153,-0.03343 V 98.34318 l 0.246171,-0.03039 v -1.869077 l -0.241613,-0.03799 v -0.162594 h 0.910226 v 0.162594 l -0.294798,0.03799 v 1.867557 l 0.721798,-0.02887 0.197545,-0.530332 0.194506,0.02887 -0.100292,0.720278 z m 1.866038,0 V 98.34318 l 0.229456,-0.02735 v -1.241493 l -0.220339,-0.05622 v -0.171712 l 0.49994,-0.0623 h 0.0091 l 0.07446,0.0547 v 1.480066 l 0.224897,0.02431 v 0.158035 z m 0.382933,-1.969369 q -0.103331,0 -0.156517,-0.0623 -0.05318,-0.06382 -0.05318,-0.147399 0,-0.09573 0.05774,-0.168673 0.05926,-0.07294 0.176271,-0.07294 h 0.003 q 0.103331,0 0.156516,0.0623 0.05318,0.0623 0.05318,0.145879 0,0.09573 -0.05926,0.170193 -0.05774,0.07294 -0.174751,0.07294 z m 0.600228,1.970889 v -0.158036 l 0.247691,-0.02887 v -1.284041 h -0.268965 l -0.0015,-0.147398 0.270484,-0.05926 v -0.14436 q 0,-0.148918 0.05926,-0.276562 0.05926,-0.129164 0.161075,-0.224897 0.101812,-0.09725 0.230976,-0.150438 0.129164,-0.0547 0.268965,-0.0547 0.07598,0 0.118526,0.0091 0.04255,0.0091 0.06686,0.01823 l -0.0015,0.319111 q -0.03343,-0.02583 -0.109409,-0.04407 -0.07446,-0.01975 -0.171712,-0.01823 -0.09117,-0.0015 -0.150438,0.02735 -0.05774,0.02887 -0.0851,0.09421 -0.02735,0.06534 -0.02735,0.17779 v 0.262886 h 0.401168 v 0.211221 h -0.401168 v 1.28708 l 0.325189,0.02583 v 0.158036 z m 1.876674,0.03191 q -0.261367,0 -0.431559,-0.110929 -0.170193,-0.112449 -0.253769,-0.309993 -0.08206,-0.197545 -0.08206,-0.455873 0,-0.202103 0.05774,-0.364698 0.05926,-0.164114 0.165634,-0.278082 0.10789,-0.115488 0.253769,-0.176271 0.145879,-0.0623 0.32215,-0.0623 0.291758,0 0.449794,0.158036 0.159556,0.156516 0.167154,0.448274 0,0.09421 -0.0046,0.164114 -0.0046,0.0699 -0.01672,0.121566 h -1.018115 q 0.0046,0.14284 0.03647,0.259848 0.03343,0.117007 0.09573,0.202103 0.0623,0.08358 0.153477,0.129164 0.09118,0.04559 0.211221,0.04559 0.124605,0 0.25225,-0.04407 0.127644,-0.04559 0.197544,-0.09725 l 0.06382,0.14132 q -0.05167,0.0547 -0.148919,0.10789 -0.09725,0.05167 -0.220338,0.08662 -0.121566,0.03495 -0.25073,0.03495 z m -0.389011,-1.030272 0.668613,-0.0015 q 0.003,-0.02887 0.0046,-0.06534 0.003,-0.03647 0.003,-0.06686 0,-0.185389 -0.0699,-0.300876 -0.0699,-0.117008 -0.237053,-0.117008 -0.07598,0 -0.141321,0.02735 -0.06382,0.02735 -0.113968,0.09117 -0.04863,0.0623 -0.07902,0.168673 -0.02887,0.10637 -0.03495,0.264406 z"
         id="path6" />
    </g>
    <path
       style="font-weight:300;font-size:19.7477px;font-family:'Merriweather 24pt';-inkscape-font-specification:'Merriweather 24pt, Light';stroke-width:1.57208"
       d="m 28.972281,172.00721 v -12.61878 l -1.569943,-0.21722 v -0.82941 h 2.379598 q 0.651674,0 1.105871,-0.0296 0.454198,-0.0395 0.967638,-0.0691 0.523314,-0.0395 1.362591,-0.0395 1.935275,0 3.041146,0.49369 1.115745,0.49369 1.579816,1.42184 0.473945,0.92814 0.473945,2.23149 0,1.58969 -0.750413,2.7153 -0.740539,1.12562 -2.024139,1.71805 -1.273727,0.59243 -2.853543,0.59243 -0.375206,0 -0.829403,-0.01 -0.454197,-0.01 -0.809656,-0.0296 -0.355459,-0.0198 -0.454197,-0.0395 v 4.69008 l 2.705435,0.19748 v 0.8294 h -6.003301 v -0.8294 z m 1.619311,-5.65772 q 0.286342,0.0395 0.839277,0.0691 0.56281,0.0197 1.283601,0.0197 1.017006,-0.01 1.895779,-0.37521 0.878772,-0.3752 1.421834,-1.26385 0.543062,-0.88865 0.543062,-2.44871 0,-1.17499 -0.414702,-1.87604 -0.404828,-0.71091 -1.253979,-1.02688 -0.849151,-0.31596 -2.162373,-0.31596 -0.464071,0 -0.859025,0.0296 -0.38508,0.0296 -0.701043,0.0592 -0.315963,0.0296 -0.592431,0.0296 z m 8.995077,6.66485 v -0.80965 l 1.560068,-0.12836 v -8.67912 l -1.500825,-0.33571 v -0.85902 l 2.478336,-0.32584 h 0.05924 l 0.365333,0.30609 v 0.33571 l -0.0395,1.75755 0.0395,-0.01 q 0.08886,-0.11848 0.355458,-0.48382 0.276468,-0.36533 0.740539,-0.78003 0.464071,-0.42458 1.115745,-0.73067 0.661548,-0.30608 1.530447,-0.30608 0.276468,0 0.424575,0.0296 0.157982,0.0197 0.25672,0.0494 v 1.63906 q -0.06912,-0.0494 -0.335711,-0.10862 -0.25672,-0.0592 -0.6418,-0.0592 -0.908394,0 -1.520573,0.23697 -0.602304,0.23697 -1.017006,0.55294 -0.414702,0.31596 -0.720791,0.56281 v 7.18816 l 2.567201,0.16786 v 0.7899 z m 7.889193,-5.51948 q 0,-1.34284 0.424576,-2.39934 0.434449,-1.05651 1.15524,-1.78717 0.730665,-0.73067 1.629185,-1.11575 0.898521,-0.38508 1.836537,-0.38508 1.757545,0 2.823921,0.78991 1.066375,0.78991 1.54032,2.10313 0.483819,1.30335 0.483819,2.8338 0,1.34284 -0.424576,2.40922 -0.424575,1.0565 -1.15524,1.78716 -0.730665,0.73067 -1.629185,1.11575 -0.898521,0.38508 -1.836536,0.38508 -1.313222,0 -2.241364,-0.4542 -0.928142,-0.46407 -1.500826,-1.25398 -0.572683,-0.79978 -0.839277,-1.83653 -0.266594,-1.03676 -0.266594,-2.192 z m 4.946799,4.73945 q 0.987385,0 1.698302,-0.51344 0.710917,-0.52332 1.086124,-1.54032 0.375206,-1.01701 0.375206,-2.51783 0,-0.97751 -0.177729,-1.84641 -0.167856,-0.87878 -0.533188,-1.5502 -0.365333,-0.68129 -0.967637,-1.06637 -0.592431,-0.39496 -1.46133,-0.39496 -0.997259,0 -1.708176,0.51344 -0.710917,0.51344 -1.095998,1.53045 -0.375206,1.01701 -0.375206,2.5277 0,0.97752 0.177729,1.85629 0.17773,0.87877 0.543062,1.56007 0.375206,0.67142 0.977511,1.0565 0.612179,0.38508 1.46133,0.38508 z m 7.622611,-0.20735 v -13.96163 l -1.658807,-0.17772 v -0.71092 l 2.823921,-0.33571 h 0.0395 l 0.365333,0.24684 v 14.95889 l 1.84641,0.13823 v 0.8294 h -5.124528 v -0.8294 z m 4.344506,-4.5321 q 0,-1.34284 0.424575,-2.39934 0.43445,-1.05651 1.155241,-1.78717 0.730665,-0.73067 1.629185,-1.11575 0.89852,-0.38508 1.836536,-0.38508 1.757545,0 2.823921,0.78991 1.066376,0.78991 1.540321,2.10313 0.483818,1.30335 0.483818,2.8338 0,1.34284 -0.424575,2.40922 -0.424576,1.0565 -1.155241,1.78716 -0.730664,0.73067 -1.629185,1.11575 -0.89852,0.38508 -1.836536,0.38508 -1.313222,0 -2.241364,-0.4542 -0.928142,-0.46407 -1.500825,-1.25398 -0.572683,-0.79978 -0.839277,-1.83653 -0.266594,-1.03676 -0.266594,-2.192 z m 4.946799,4.73945 q 0.987385,0 1.698302,-0.51344 0.710917,-0.52332 1.086123,-1.54032 0.375207,-1.01701 0.375207,-2.51783 0,-0.97751 -0.17773,-1.84641 -0.167855,-0.87878 -0.533188,-1.5502 -0.365332,-0.68129 -0.967637,-1.06637 -0.592431,-0.39496 -1.46133,-0.39496 -0.997258,0 -1.708176,0.51344 -0.710917,0.51344 -1.095997,1.53045 -0.375206,1.01701 -0.375206,2.5277 0,0.97752 0.177729,1.85629 0.177729,0.87877 0.543062,1.56007 0.375206,0.67142 0.977511,1.0565 0.612179,0.38508 1.46133,0.38508 z m 11.10807,6.08229 q -1.244105,0 -2.132752,-0.21722 -0.878773,-0.21723 -1.431708,-0.61218 -0.552936,-0.38508 -0.809656,-0.92814 -0.246846,-0.53319 -0.246846,-1.18487 0,-0.6418 0.25672,-1.17498 0.25672,-0.53319 0.681296,-0.93802 0.424575,-0.39495 0.908394,-0.63193 -0.444323,-0.2271 -0.69117,-0.63192 -0.236972,-0.40483 -0.236972,-0.99726 0,-0.44433 0.217225,-0.8689 0.227098,-0.42458 0.582557,-0.77016 0.355458,-0.35546 0.77016,-0.57268 -0.908394,-0.44433 -1.441582,-1.23424 -0.523314,-0.79978 -0.523314,-1.93527 0,-1.19474 0.6418,-2.04389 0.6418,-0.85902 1.648933,-1.31322 1.007133,-0.4542 2.083382,-0.4542 0.878773,0 1.629186,0.20735 0.750412,0.19748 1.303348,0.60231 0.207351,-0.20735 0.819529,-0.50357 0.622053,-0.30609 1.402087,-0.30609 H 86.4282 v 1.45146 h -2.1525 q 0.17773,0.23697 0.30609,0.55294 0.138234,0.31596 0.207351,0.68129 0.06912,0.35546 0.06912,0.75041 0,1.21449 -0.59243,2.11301 -0.592431,0.89852 -1.58969,1.39221 -0.987385,0.49369 -2.172247,0.49369 -0.394954,0 -0.770161,-0.0395 -0.365332,-0.0494 -0.710917,-0.13824 -0.345585,0.2666 -0.602305,0.63193 -0.25672,0.35546 -0.25672,0.75041 0,0.76029 0.483819,0.98739 0.493692,0.21722 1.658807,0.21722 h 2.35985 q 1.244105,0 2.024139,0.33571 0.789908,0.32584 1.15524,0.92814 0.365333,0.60231 0.365333,1.40209 0,0.81953 -0.444323,1.53045 -0.43445,0.72079 -1.224358,1.27372 -0.780034,0.55294 -1.826662,0.8689 -1.046628,0.32584 -2.270985,0.32584 z m 0.108612,-0.98738 q 1.056502,0 2.004391,-0.31597 0.94789,-0.30609 1.550195,-0.87877 0.602305,-0.56281 0.602305,-1.36259 0,-0.54306 -0.17773,-0.93802 -0.167855,-0.39495 -0.691169,-0.61218 -0.523314,-0.20735 -1.569942,-0.20735 h -2.438841 q -0.404828,0 -0.77016,-0.0197 -0.365333,-0.0197 -0.681296,-0.0889 -0.464071,0.37521 -0.710917,0.9084 -0.246846,0.53318 -0.246846,1.2441 0,0.71092 0.286341,1.21448 0.296216,0.51344 0.977511,0.78004 0.681296,0.27647 1.866158,0.27647 z m 0.138234,-9.03458 q 1.2836,0 1.885905,-0.72079 0.612179,-0.72079 0.612179,-2.12288 0,-0.91826 -0.296216,-1.51069 -0.296215,-0.60231 -0.878772,-0.88865 -0.572684,-0.29622 -1.402087,-0.29622 -0.730665,0 -1.323096,0.25672 -0.582557,0.24685 -0.928142,0.82941 -0.345584,0.57268 -0.345584,1.56994 0,0.81953 0.266593,1.4712 0.276468,0.65168 0.868899,1.03676 0.592431,0.3752 1.540321,0.3752 z m 15.857395,4.89743 q -0.473945,0 -0.730665,-0.16785 -0.25672,-0.15798 -0.25672,-0.66155 v -0.78003 q -0.394954,0.35545 -0.967638,0.74053 -0.562809,0.38508 -1.234231,0.65168 -0.671422,0.25672 -1.392213,0.25672 -1.79704,0 -2.557327,-1.00713 -0.760286,-1.00714 -0.760286,-3.23863 v -5.79595 l -1.174988,-0.33571 v -0.71092 l 2.379597,-0.26659 h 0.0395 l 0.345585,0.2271 v 6.65497 q 0,1.15524 0.167855,1.88591 0.177729,0.72079 0.651674,1.06638 0.483819,0.33571 1.392213,0.33571 0.622053,0 1.174988,-0.20735 0.552936,-0.20736 1.007133,-0.4937 0.454197,-0.29621 0.760286,-0.56281 v -7.59299 L 93.9027,162.85415 v -0.71092 l 2.596822,-0.26659 h 0.0395 l 0.444323,0.2271 v 10.06145 h 1.214484 l -0.01975,0.73067 q -0.325837,0.0889 -0.720791,0.1876 -0.394954,0.10861 -0.908394,0.10861 z m 7.741062,0.0395 q -1.55019,0 -2.61657,-0.72079 -1.0565,-0.73067 -1.59956,-2.01427 -0.533188,-1.29347 -0.533188,-2.97203 0,-1.2836 0.375207,-2.33023 0.385081,-1.04662 1.066371,-1.80691 0.6813,-0.76029 1.59957,-1.16511 0.91827,-0.41471 1.98464,-0.41471 1.74767,0 2.73506,0.99726 0.98738,0.98739 1.04663,2.90291 0,0.56281 -0.0198,0.98739 -0.0198,0.4147 -0.0987,0.73066 h -6.99069 q 0,0.99726 0.21723,1.85629 0.2271,0.84915 0.67142,1.49095 0.44432,0.6418 1.10587,0.99726 0.67142,0.35546 1.5502,0.35546 0.84915,0 1.70817,-0.30609 0.8689,-0.30609 1.3231,-0.70105 l 0.30609,0.7208 q -0.37521,0.38508 -0.98739,0.70104 -0.6023,0.30609 -1.35271,0.49369 -0.74054,0.19748 -1.49096,0.19748 z m -3.03127,-6.70435 5.33188,-0.01 q 0.0296,-0.15798 0.0395,-0.42458 0.0197,-0.26659 0.0197,-0.44432 0,-1.22436 -0.57268,-2.03401 -0.57268,-0.81953 -1.8859,-0.81953 -0.60231,0 -1.11575,0.20735 -0.50357,0.19748 -0.88865,0.6418 -0.38508,0.44432 -0.62205,1.15524 -0.23697,0.71092 -0.30609,1.72792 z m 19.70822,6.70435 q -1.60944,0 -2.86342,-0.52332 -1.24411,-0.53318 -2.10313,-1.5107 -0.85903,-0.97751 -1.30335,-2.34997 -0.44432,-1.38234 -0.44432,-3.09052 0,-1.6588 0.53319,-3.05102 0.53318,-1.39221 1.49095,-2.41909 0.95776,-1.02688 2.23149,-1.58969 1.27372,-0.56281 2.77455,-0.56281 0.67142,0 1.29347,0.079 0.63193,0.079 1.17499,0.19748 0.55294,0.10861 0.98739,0.20735 0.43445,0.0987 0.70104,0.14811 l -0.15798,3.21887 h -1.02688 l -0.43445,-2.31048 q -0.17773,-0.15798 -0.57269,-0.29621 -0.38508,-0.13824 -0.97751,-0.2271 -0.59243,-0.0889 -1.36259,-0.0889 -1.36259,0 -2.44871,0.75042 -1.08613,0.75041 -1.72793,2.18212 -0.63192,1.42183 -0.63192,3.44597 0,1.37247 0.29621,2.6067 0.29622,1.23423 0.88865,2.20187 0.6023,0.95776 1.53045,1.51069 0.93801,0.54307 2.21174,0.54307 0.80965,0 1.34284,-0.0987 0.53319,-0.0987 0.8689,-0.2666 0.34559,-0.17773 0.60231,-0.38508 l 0.7899,-1.8859 0.95777,0.16785 -0.4937,2.6462 q -0.38508,0.01 -0.75041,0.12836 -0.36533,0.11848 -0.80965,0.26659 -0.43445,0.13823 -1.05651,0.24685 -0.62205,0.10861 -1.51069,0.10861 z m 7.52385,-1.18486 v -13.98138 l -1.7378,-0.17772 v -0.71092 l 2.89304,-0.33571 h 0.0494 l 0.38508,0.24684 v 4.76907 l -0.0592,1.64894 q 0.36533,-0.35546 1.02688,-0.74054 0.66154,-0.38508 1.45145,-0.65168 0.78991,-0.26659 1.53045,-0.26659 1.2441,0 1.9254,0.48382 0.69117,0.48382 0.94789,1.50082 0.26659,1.01701 0.26659,2.62645 v 5.57872 l 1.46133,0.14811 v 0.8294 h -4.36424 v -0.8294 l 1.31322,-0.14811 v -5.59847 q 0,-1.13549 -0.15798,-1.88591 -0.14811,-0.76028 -0.63192,-1.12561 -0.47395,-0.36534 -1.44159,-0.36534 -0.55293,0 -1.15524,0.19748 -0.59243,0.1876 -1.14536,0.49369 -0.55294,0.29622 -0.96764,0.61218 v 7.66211 l 1.43171,0.15798 v 0.8294 h -4.33462 v -0.8294 z m 14.39605,1.18486 q -0.8689,0 -1.60943,-0.32584 -0.74054,-0.32584 -1.20461,-1.00713 -0.4542,-0.6813 -0.4542,-1.74767 0,-1.02688 0.56281,-1.71805 0.57268,-0.70105 1.52057,-1.11575 0.94789,-0.42457 2.11301,-0.62205 1.16511,-0.19748 2.37959,-0.21723 v -0.83927 q 0,-0.96764 -0.20735,-1.5107 -0.19747,-0.54306 -0.71091,-0.77016 -0.50357,-0.23697 -1.42184,-0.23697 -1.14537,0 -2.01426,0.38508 -0.8689,0.38508 -1.35272,0.66154 l -0.42458,-0.84915 q 0.18761,-0.17773 0.81953,-0.51344 0.6418,-0.34558 1.53045,-0.63192 0.88865,-0.28635 1.82666,-0.28635 1.30335,0 2.07351,0.37521 0.78003,0.37521 1.11574,1.21448 0.33572,0.82941 0.33572,2.20187 v 6.47725 h 1.21448 v 0.71092 q -0.21723,0.0592 -0.53319,0.12836 -0.30609,0.0691 -0.65167,0.11848 -0.33571,0.0494 -0.63193,0.0494 -0.42458,0 -0.63193,-0.13823 -0.20735,-0.12836 -0.20735,-0.69117 v -0.71092 q -0.23697,0.21723 -0.74054,0.60231 -0.49369,0.38508 -1.18486,0.70104 -0.68129,0.30609 -1.5107,0.30609 z m 0.58256,-1.15524 q 0.61218,0 1.37247,-0.34559 0.76028,-0.35546 1.35271,-0.85902 v -3.48547 q -1.61931,0.01 -2.69556,0.33571 -1.06637,0.32584 -1.59956,0.90839 -0.53319,0.57269 -0.53319,1.3231 0,0.78003 0.27647,1.25398 0.27647,0.46407 0.75041,0.67142 0.48382,0.19748 1.07625,0.19748 z m 6.20077,5.69721 v -0.83928 l 1.50083,-0.20735 v -13.3297 l -1.52057,-0.33571 v -0.85902 l 2.49808,-0.32584 h 0.0592 l 0.34559,0.30609 v 1.21448 q 0.33571,-0.35546 0.84915,-0.72079 0.51344,-0.36533 1.19473,-0.61218 0.6813,-0.25672 1.5107,-0.25672 1.10587,0 2.08339,0.55294 0.98738,0.55293 1.59956,1.7378 0.62205,1.17498 0.62205,3.06089 0,1.26385 -0.39495,2.36972 -0.39496,1.096 -1.12562,1.93528 -0.72079,0.83928 -1.74767,1.30335 -1.01701,0.46407 -2.27099,0.46407 -0.54306,0 -1.15524,-0.0889 -0.61218,-0.079 -1.017,-0.2271 l 0.0395,1.67856 v 2.13275 l 2.16237,0.20735 v 0.83928 z m 5.27264,-5.45037 q 1.06638,0 1.90565,-0.52331 0.84915,-0.52331 1.34285,-1.60944 0.50356,-1.08612 0.50356,-2.76468 0,-1.17498 -0.25672,-2.01426 -0.24684,-0.84915 -0.70104,-1.38234 -0.44432,-0.53319 -1.02688,-0.78991 -0.58256,-0.25672 -1.24411,-0.25672 -0.62205,0 -1.15524,0.1876 -0.53318,0.18761 -0.93801,0.4542 -0.40483,0.2666 -0.63193,0.51344 v 7.50413 q 0.15798,0.23697 0.77016,0.46407 0.62205,0.21722 1.43171,0.21722 z m 10.10096,0.9084 q -0.95777,0 -1.52058,-0.44433 -0.56281,-0.45419 -0.56281,-1.74767 v -7.78059 h -1.49095 v -0.77016 q 0.17773,-0.0395 0.40483,-0.0889 0.23697,-0.0592 0.44432,-0.10861 0.20735,-0.0592 0.28635,-0.10861 0.10861,-0.0691 0.17772,-0.14811 0.079,-0.079 0.13824,-0.1876 0.0691,-0.11849 0.12836,-0.28634 0.0889,-0.23697 0.20735,-0.70105 0.12836,-0.47394 0.23697,-0.92814 0.11849,-0.45419 0.16786,-0.6418 h 0.87877 v 2.81405 h 3.44597 v 1.15524 h -3.45584 v 6.43775 q 0,1.06638 0.079,1.55019 0.0889,0.47395 0.34558,0.61218 0.2666,0.12836 0.79978,0.12836 0.59243,0 1.2836,-0.16785 0.70105,-0.16786 1.02688,-0.32584 l 0.24685,0.74054 q -0.28634,0.21722 -0.81953,0.44432 -0.52331,0.2271 -1.17499,0.38508 -0.6418,0.16786 -1.27372,0.16786 z m 8.53101,0 q -1.55019,0 -2.61657,-0.72079 -1.0565,-0.73067 -1.59956,-2.01427 -0.53319,-1.29347 -0.53319,-2.97203 0,-1.2836 0.37521,-2.33023 0.38508,-1.04662 1.06637,-1.80691 0.6813,-0.76029 1.59957,-1.16511 0.91827,-0.41471 1.98464,-0.41471 1.74767,0 2.73506,0.99726 0.98738,0.98739 1.04663,2.90291 0,0.56281 -0.0198,0.98739 -0.0197,0.4147 -0.0987,0.73066 h -6.99069 q 0,0.99726 0.21723,1.85629 0.2271,0.84915 0.67142,1.49095 0.44432,0.6418 1.10587,0.99726 0.67142,0.35546 1.5502,0.35546 0.84915,0 1.70817,-0.30609 0.8689,-0.30609 1.3231,-0.70105 l 0.30609,0.7208 q -0.37521,0.38508 -0.98739,0.70104 -0.6023,0.30609 -1.35271,0.49369 -0.74054,0.19748 -1.49096,0.19748 z m -3.03127,-6.70435 5.33188,-0.01 q 0.0296,-0.15798 0.0395,-0.42458 0.0197,-0.26659 0.0197,-0.44432 0,-1.22436 -0.57268,-2.03401 -0.57268,-0.81953 -1.8859,-0.81953 -0.60231,0 -1.11575,0.20735 -0.50357,0.19748 -0.88865,0.6418 -0.38508,0.44432 -0.62205,1.15524 -0.23697,0.71092 -0.30609,1.72792 z m 8.40267,6.48712 v -0.80965 l 1.56007,-0.12836 v -8.67912 l -1.50083,-0.33571 v -0.85902 l 2.47834,-0.32584 h 0.0592 l 0.36533,0.30609 v 0.33571 l -0.0395,1.75755 0.0395,-0.01 q 0.0889,-0.11848 0.35546,-0.48382 0.27647,-0.36533 0.74054,-0.78003 0.46407,-0.42458 1.11575,-0.73067 0.66154,-0.30608 1.53044,-0.30608 0.27647,0 0.42458,0.0296 0.15798,0.0197 0.25672,0.0494 v 1.63906 q -0.0691,-0.0494 -0.33571,-0.10862 -0.25672,-0.0592 -0.6418,-0.0592 -0.9084,0 -1.52058,0.23697 -0.6023,0.23697 -1.017,0.55294 -0.4147,0.31596 -0.72079,0.56281 v 7.18816 l 2.5672,0.16786 v 0.7899 z"
       id="text2"
       transform="scale(0.99976385,1.0002362)"
       aria-label="Prologue Chapter" />
    <path
       style="fill:#000000;stroke-width:0.264583"
       d="m 19.981993,149.62707 c 179.362177,0 180.075817,0 180.075817,0"
       id="path2" />
    <path
       style="fill:#000000;stroke-width:0.264583"
       d="m 17.365304,150.10283 c 178.886416,0 178.886416,0 0,0 z"
       id="path3" />
    <path
       style="fill:#000000;stroke:#000000;stroke-width:1.48342;stroke-dasharray:none;stroke-opacity:1"
       d="m 14.486329,148.5 c 185.609331,0 185.609331,0 185.609331,0"
       id="path4" />
  </g>
</svg>
