<svg xmlns="http://www.w3.org/2000/svg" width="981.217" height="136.755" viewBox="0 0 259.614 36.183"><path d="M1.883 84.789h32.788v32.788H1.883z" style="display:inline;fill:#000;stroke:#000;stroke-width:3.39553" transform="translate(-.185 -83.091)"/><path d="M44.116 101.79q0-1.683.519-2.987.52-1.317 1.393-2.229.886-.911 1.962-1.38t2.203-.468q2.102 0 3.355.962t1.81 2.52.558 3.355q0 1.67-.52 2.988-.518 1.316-1.392 2.228t-1.95 1.393q-1.076.468-2.19.468-1.57 0-2.671-.557-1.102-.57-1.786-1.532-.67-.962-.987-2.19-.304-1.228-.304-2.57zm5.9 5.951q1.177 0 2.013-.67.848-.685 1.291-2.001.456-1.33.456-3.28 0-1.164-.202-2.266-.203-1.101-.646-1.987t-1.152-1.406-1.735-.519q-1.177 0-2.038.671-.848.671-1.304 2-.456 1.317-.456 3.28 0 1.177.215 2.291.215 1.102.659 1.988.455.874 1.164 1.393.722.506 1.735.506zm13.42.9q-1.128 0-2.077-.419-.937-.417-1.62-1.24-.685-.823-1.064-2.039-.368-1.215-.368-2.798 0-2.127.836-3.798T61.46 95.7t3.38-.975q.887 0 1.596.177.721.165 1.152.367v-6.432l-2.076-.24v-.557l3.304-.418h.342l.304.24v19.701h1.456v.633q-.43.114-.975.24-.545.14-1.089.14-.62 0-.924-.215-.304-.228-.304-.849V106.5q-.291.393-.861.9-.57.506-1.405.873-.823.367-1.925.367zm.632-1.14q.836 0 1.52-.292.696-.29 1.202-.696.52-.418.798-.747v-9.141q-.24-.342-.962-.684t-1.748-.342q-1.354 0-2.342.697-.987.683-1.532 2.089-.531 1.392-.544 3.507-.013 1.937.468 3.178.494 1.24 1.317 1.836.823.595 1.823.595zm8.355-5.71q0-1.684.52-2.988.518-1.317 1.392-2.229.886-.911 1.962-1.38t2.203-.468q2.102 0 3.355.962t1.811 2.52.557 3.355q0 1.67-.519 2.988-.52 1.316-1.393 2.228t-1.95 1.393q-1.076.468-2.19.468-1.57 0-2.671-.557-1.102-.57-1.785-1.532-.672-.962-.988-2.19-.304-1.228-.304-2.57zm5.9 5.95q1.178 0 2.013-.67.848-.685 1.292-2.001.455-1.33.455-3.28 0-1.164-.202-2.266-.203-1.101-.646-1.987t-1.152-1.406-1.735-.519q-1.177 0-2.038.671-.848.671-1.304 2-.456 1.317-.456 3.28 0 1.177.215 2.291.216 1.102.659 1.988.456.874 1.165 1.393.721.506 1.734.506zm13.42.9q-1.127 0-2.077-.419-.937-.417-1.62-1.24-.684-.823-1.064-2.039-.367-1.215-.367-2.798 0-2.127.835-3.798.836-1.671 2.317-2.646t3.38-.975q.887 0 1.596.177.722.165 1.152.367v-6.432l-2.076-.24v-.557l3.304-.418h.342l.304.24v19.701h1.456v.633q-.43.114-.975.24-.544.14-1.089.14-.62 0-.924-.215-.304-.228-.304-.849V106.5q-.291.393-.86.9-.57.506-1.406.873-.823.367-1.925.367zm.632-1.14q.836 0 1.52-.292.696-.29 1.202-.696.52-.418.798-.747v-9.141q-.24-.342-.962-.684t-1.747-.342q-1.355 0-2.343.697-.987.683-1.532 2.089-.531 1.392-.544 3.507-.013 1.937.468 3.178.494 1.24 1.317 1.836.823.595 1.823.595zm14.192 1.14q-1.861 0-3.165-.836-1.292-.849-1.988-2.368-.684-1.52-.684-3.583 0-1.671.494-2.975.506-1.317 1.342-2.229.848-.924 1.912-1.405 1.063-.481 2.203-.481 2.165 0 3.431 1.215t1.317 3.558q.012.734-.026 1.203-.038.456-.114.81h-8.444q0 1.152.228 2.241.227 1.076.721 1.924.494.849 1.279 1.355.785.494 1.886.494 1.09 0 2.115-.393 1.025-.392 1.595-.873l.317.67q-.469.457-1.178.837-.696.38-1.544.607-.836.228-1.697.228zm-3.71-7.889 6.508-.139q.05-.253.063-.544t.013-.545q0-1.772-.696-2.823-.684-1.064-2.216-1.064-.886 0-1.57.393-.671.392-1.127 1.089-.456.696-.696 1.633-.24.924-.279 2zm15.028 7.686-4.457-12.294-1.102-.342v-.671h4.736v.671l-1.608.342 2.924 8.812.76 2.38.658-2.342 2.849-8.85-1.481-.342v-.671h4.102v.671l-1.14.342-4.57 12.294zm12.52.19q-.886 0-1.722-.216-.836-.202-1.507-.443-.67-.24-1.076-.342v-3.038h1.076l.545 1.975q.101.24.519.532.43.29 1.038.506.62.203 1.279.203.924 0 1.582-.254.671-.253 1.026-.76.354-.518.354-1.253 0-.67-.392-1.19-.393-.519-1.19-.975-.785-.456-1.988-.95-1.228-.493-2.026-1.088-.785-.595-1.177-1.33-.393-.747-.393-1.67 0-1.166.62-1.95.621-.798 1.621-1.216 1.013-.418 2.165-.418 1 0 1.684.165.697.152 1.14.342.456.177.721.253v2.861h-.937l-.582-1.899q-.114-.203-.38-.418-.253-.215-.696-.354-.443-.152-1.089-.152-.646-.013-1.279.215-.633.215-1.05.684-.406.468-.406 1.228t.405 1.291q.406.52 1.077.9.67.379 1.456.72.81.355 1.57.722.76.368 1.354.836.595.456.95 1.089.354.62.354 1.494 0 1.203-.582 2.076-.57.874-1.62 1.355-1.039.468-2.444.468zm17.355.012q-1.506 0-2.608-.278-1.089-.279-1.823-.557-.722-.292-1.114-.33l.202-4.127h1.178l.544 3.203q.444.317.975.595.532.266 1.203.43.684.165 1.532.165 1.507 0 2.456-.494.95-.506 1.406-1.367.455-.86.455-1.937 0-1.165-.62-1.937-.62-.785-1.659-1.368-1.038-.582-2.317-1.114-.785-.342-1.658-.772-.874-.43-1.633-1.05-.76-.621-1.241-1.52-.469-.9-.469-2.153 0-1.29.735-2.342.747-1.063 2.076-1.696t3.127-.646q.95-.013 1.697.127.76.126 1.33.303.57.165.949.317.392.14.62.165l-.152 3.81h-1.126l-.57-3q-.177-.152-.57-.342-.38-.203-.975-.355-.582-.151-1.367-.151-1.279 0-2.19.392-.9.393-1.393 1.14-.481.734-.481 1.76 0 1.1.506 1.823.507.709 1.456 1.266.95.544 2.279 1.164.937.43 1.887.912.962.481 1.772 1.127.823.633 1.317 1.52.494.885.494 2.152 0 .898-.368 1.81-.354.899-1.114 1.671-.747.76-1.924 1.228-1.178.456-2.824.456zm18.383-.063q-.557 0-.887-.228-.316-.24-.316-.823v-1.101q-.418.468-1.05.987-.621.507-1.419.861-.798.355-1.76.355-2.127 0-3.013-1.127-.886-1.14-.886-3.685l-.013-7.305-1.545-.43v-.57l2.798-.532h.317l.291.203v8.47q0 1.203.19 2.026t.709 1.253q.532.43 1.52.43.822 0 1.519-.24.709-.24 1.266-.608.57-.367.975-.76v-9.242l-1.786-.43v-.57l3.001-.532h.304l.342.203v12.382h1.456l-.013.633q-.405.114-.886.24-.481.14-1.114.14zm2.48-19.966v-.57l3.115-.418h.354l.291.24v8.889q.291-.368.849-.836.57-.468 1.392-.81.823-.342 1.9-.342 1.506 0 2.658.722 1.165.709 1.823 2.14.659 1.43.659 3.57 0 1.582-.481 2.937-.482 1.355-1.355 2.367-.874 1.013-2.077 1.583-1.202.557-2.62.557-1.165 0-2.14-.215-.962-.215-1.62-.443-.659-.24-.862-.304v-18.84Zm7.28 7.267q-.823 0-1.52.291-.696.291-1.202.684-.507.392-.798.709v9.166q.24.355.963.697.721.329 1.747.329 1.405 0 2.38-.722.988-.721 1.507-2.127.519-1.418.531-3.456.013-1.925-.48-3.153-.482-1.228-1.305-1.823-.81-.595-1.823-.595zm11.976 12.75q-.886 0-1.722-.216-.836-.202-1.507-.443-.67-.24-1.076-.342v-3.038h1.076l.545 1.975q.101.24.519.532.43.29 1.038.506.62.203 1.279.203.924 0 1.582-.254.671-.253 1.026-.76.355-.518.355-1.253 0-.67-.393-1.19-.392-.519-1.19-.975-.785-.456-1.988-.95-1.228-.493-2.026-1.088-.785-.595-1.177-1.33-.393-.747-.393-1.67 0-1.166.62-1.95.621-.798 1.621-1.216 1.013-.418 2.165-.418 1 0 1.684.165.697.152 1.14.342.456.177.721.253v2.861h-.936l-.583-1.899q-.114-.203-.38-.418-.253-.215-.696-.354-.443-.152-1.089-.152-.646-.013-1.279.215-.633.215-1.05.684-.406.468-.406 1.228t.406 1.291q.405.52 1.076.9.67.379 1.456.72.81.355 1.57.723.76.367 1.354.835.595.456.95 1.089.354.62.354 1.494 0 1.203-.582 2.076-.57.874-1.62 1.355-1.039.469-2.444.469zm8.355 6.115q-.393 0-.697-.05-.29-.052-.443-.127v-1.583q.152.076.456.114.317.038.62.038.608 0 1.178-.393.57-.392 1.064-1.063.506-.671.924-1.532.418-.848.734-1.785h-.924l-4.47-12.218-1.139-.342v-.671h4.735v.684l-1.532.316 2.988 8.888.773 2.596.734-2.583 2.747-8.9-1.38-.33v-.671h3.95v.671l-1.164.33q-.671 1.936-1.292 3.696-.607 1.747-1.127 3.254-.506 1.494-.911 2.672-.405 1.164-.684 1.95-.266.784-.392 1.1-.747 2.052-1.431 3.369-.684 1.316-1.469 1.937-.785.633-1.848.633zm15.571-6.115q-.886 0-1.721-.216-.836-.202-1.507-.443-.671-.24-1.076-.342v-3.038h1.076l.544 1.975q.102.24.52.532.43.29 1.038.506.62.203 1.278.203.925 0 1.583-.254.671-.253 1.026-.76.354-.518.354-1.253 0-.67-.392-1.19-.393-.519-1.19-.975-.786-.456-1.988-.95-1.228-.493-2.026-1.088-.785-.595-1.178-1.33-.392-.747-.392-1.67 0-1.166.62-1.95.62-.798 1.621-1.216 1.013-.418 2.165-.418 1 0 1.684.165.696.152 1.14.342.455.177.721.253v2.861h-.937l-.582-1.899q-.114-.203-.38-.418-.253-.215-.696-.354-.444-.152-1.09-.152-.645-.013-1.278.215-.633.215-1.05.684-.406.468-.406 1.228t.405 1.291q.405.52 1.076.9.671.379 1.456.72.81.355 1.57.723.76.367 1.355.835.595.456.95 1.089.354.62.354 1.494 0 1.203-.582 2.076-.57.874-1.621 1.355-1.038.469-2.444.469zm10.077-.051q-.962 0-1.582-.494t-.62-1.937v-9.952h-1.786v-.67q.152-.051.405-.102.266-.063.52-.126.265-.076.38-.127.164-.076.265-.177.114-.102.19-.254.089-.151.165-.354.1-.304.253-.836.164-.544.316-1.126.152-.596.24-1.039h.95v3.748h3.419v1.063h-3.431v9.18q0 .86.101 1.291.114.418.355.557.253.127.658.127.532 0 1.266-.178.747-.19 1.101-.392l.254.671q-.317.266-.874.532-.557.253-1.228.418-.671.177-1.317.177zm9.963.063q-1.861 0-3.165-.836-1.292-.848-1.988-2.367-.684-1.52-.684-3.583 0-1.671.494-2.975.507-1.317 1.342-2.229.849-.924 1.912-1.405 1.064-.481 2.203-.481 2.165 0 3.431 1.215t1.317 3.558q.013.734-.025 1.203-.038.456-.114.81h-8.445q0 1.152.228 2.241.228 1.076.721 1.924.494.849 1.28 1.355.784.494 1.886.494 1.088 0 2.114-.393 1.026-.392 1.595-.873l.317.67q-.469.457-1.178.836-.696.38-1.544.608-.836.228-1.697.228zm-3.71-7.888 6.508-.139q.05-.253.063-.544t.013-.545q0-1.772-.696-2.823-.684-1.064-2.216-1.064-.886 0-1.57.393-.67.392-1.127 1.089-.455.696-.696 1.633-.24.924-.278 2zm10.14 7.61v-.697l1.545-.316V96.625l-1.734-.443v-.646l2.772-.557.646.152.114.519v1.52q.469-.52 1.216-1.052.747-.544 1.658-.898.912-.355 1.874-.355 1.342 0 2.14.544.797.532 1.19 1.646.443-.48 1.177-.987.747-.507 1.659-.848.911-.355 1.848-.355 1.152 0 1.887.38.747.367 1.152 1.063.418.697.57 1.697.164.988.164 2.241v7.103l1.646.316v.697h-5.14v-.697l1.62-.316v-7.014q0-1.267-.177-2.19-.177-.938-.734-1.431-.557-.507-1.697-.507-.772 0-1.443.19-.658.177-1.24.494-.583.316-1.102.747.076.304.114.734.038.418.05.912.013.493.013.987l-.013 7.078 1.646.316v.697h-5.19v-.697l1.658-.316v-7.04q0-1.266-.152-2.177-.152-.925-.671-1.418-.52-.494-1.62-.494-1.191 0-2.166.43-.962.43-1.848 1.152v9.547l1.595.316v.697z" aria-label="ododevs Subsystem" style="font-weight:300;font-size:25.3218px;font-family:&quot;Merriweather 96pt&quot;;-inkscape-font-specification:&quot;Merriweather 96pt, Light&quot;;letter-spacing:.264583px;baseline-shift:baseline;fill:#fff;stroke:#000;stroke-width:0" transform="translate(-.185 -83.091)"/><path d="M29.79 86.381h3.289v3.289H29.79zM3.475 86.381h3.289v3.289H3.475zM16.632 86.381h3.289v3.289h-3.289zM13.343 89.67h3.289v6.579h-3.289z" style="fill:#fff;fill-opacity:1;stroke:#000;stroke-width:0;stroke-dasharray:none" transform="translate(-.185 -83.091)"/><path d="M-99.538 6.764h3.289v6.579h-3.289zM-106.163 6.787h3.289v6.579h-3.289zM-99.492 23.165h3.289v6.579h-3.289zM-106.117 23.188h3.289v6.579h-3.289z" style="fill:#fff;fill-opacity:1;stroke:#000;stroke-width:0;stroke-dasharray:none" transform="rotate(-90 -41.638 -41.453)"/><path d="M19.922 89.67h3.289v6.579h-3.289zM13.343 106.117h3.289v6.579h-3.289zM19.922 106.117h3.289v6.579h-3.289zM16.632 96.249h3.289v3.289h-3.289zM16.632 102.828h3.289v3.289h-3.289z" style="fill:#fff;fill-opacity:1;stroke:#000;stroke-width:0;stroke-dasharray:none" transform="translate(-.185 -83.091)"/><path d="M19.876 99.492h3.289v3.289h-3.289zM13.343 99.538h3.289v3.289h-3.289zM16.632 112.696h3.289v3.289h-3.289z" style="fill:#fff;fill-opacity:1;stroke:#000;stroke-width:0;stroke-dasharray:none" transform="translate(-.185 -83.091)"/><path d="M99.06-34.507h3.289v3.289H99.06zM99.479-8.195h3.289v3.289h-3.289z" style="fill:#fff;fill-opacity:1;stroke:#000;stroke-width:0;stroke-dasharray:none" transform="rotate(90.811 40.87 -41.637)"/><path d="M29.79 112.696h3.289v3.289H29.79zM3.475 112.696h3.289v3.289H3.475z" style="fill:#fff;fill-opacity:1;stroke:#000;stroke-width:0;stroke-dasharray:none" transform="translate(-.185 -83.091)"/></svg>