<svg xmlns="http://www.w3.org/2000/svg" width="701.516" height="473.641" viewBox="0 0 185.609 125.318"><g aria-label="A Day in Parker's Life" style="font-size:3.03915px;font-family:Merriweather;-inkscape-font-specification:Merriweather;white-space:pre;inline-size:36.0518;stroke-width:.264583"><path d="m61.616 90.715.74-2.086h.389l.696 2.086.184.03v.158h-.84v-.158l.238-.03-.135-.435h-.842l-.135.436.254.03v.157h-.734l-.002-.158zm1.216-.623-.286-.967-.06-.24-.07.247-.315.96zm2.511.836-.121-.006-.128-.008-.126-.008q-.06-.003-.117-.003h-.431v-.158l.246-.03v-1.87l-.233-.037v-.163h.415q.094 0 .18-.004l.176-.011q.088-.006.18-.006.29 0 .5.074.212.075.347.216t.2.34.066.447q0 .275-.082.503t-.234.39q-.152.165-.365.253-.211.087-.473.08m.025-.177q.214-.003.377-.112.162-.11.253-.327.093-.219.093-.548 0-.231-.047-.41-.046-.181-.141-.305-.096-.124-.243-.19-.148-.065-.348-.065-.06 0-.111.005-.05.004-.092.01-.04.005-.071.007v1.908q.053.012.108.018t.11.008zm1.796.186q-.135 0-.25-.055-.116-.055-.186-.164t-.07-.274q0-.15.08-.255.082-.106.222-.172t.32-.098.375-.037v-.099q0-.127-.028-.203-.027-.076-.098-.11-.072-.033-.206-.033-.174 0-.306.053-.131.053-.206.091l-.082-.168q.034-.03.134-.084.102-.055.246-.099.146-.044.309-.044.217 0 .345.064.127.062.182.196.056.132.056.34v.953l.172.002v.144q-.034.008-.093.018-.058.011-.124.019t-.12.009q-.089 0-.124-.028-.034-.026-.034-.117v-.092q-.037.04-.111.098-.073.058-.175.102t-.228.043m.158-.224q.076 0 .169-.042.094-.044.164-.108v-.514q-.21 0-.347.049-.135.047-.2.128-.066.079-.066.179 0 .106.037.175.036.068.099.101.063.032.144.032m1.285.956q-.05 0-.092-.007-.041-.008-.064-.019v-.297q.02.012.064.02t.09.008q.068 0 .127-.022.06-.023.116-.076.054-.054.106-.145.052-.09.1-.228h-.156l-.572-1.489-.138-.04v-.151h.77v.152l-.226.038.29.881.125.401.114-.403.263-.88-.198-.037v-.152h.623v.152l-.152.036q-.083.255-.158.477-.073.222-.135.404-.06.183-.108.321-.047.137-.079.222l-.04.112q-.092.234-.18.395-.088.162-.204.244-.115.083-.285.083M61.566 94.702v-.158l.23-.027v-1.242l-.221-.056v-.172l.5-.062h.009l.074.055v1.48l.225.024v.158zm.383-1.97q-.104 0-.157-.061-.053-.064-.053-.148 0-.096.058-.168t.176-.073h.003q.103 0 .157.062.053.062.053.146 0 .096-.06.17-.057.073-.174.073zm.81 1.785v-1.242l-.207-.054v-.177l.459-.059h.012l.067.055v.123l-.003.076q.065-.06.166-.119.1-.057.218-.097.119-.04.239-.04.188 0 .296.072.11.07.155.222.046.15.046.389v.854l.2.024v.158h-.743v-.158l.178-.024v-.85q0-.158-.026-.258-.024-.1-.09-.147-.063-.049-.185-.049-.077 0-.155.026-.076.026-.144.065-.068.038-.119.078v1.132l.196.027v.158h-.746v-.158zM61.824 98.313v-1.87l-.232-.037v-.163h.424q.086 0 .158-.004.071-.007.155-.011.083-.005.208-.005.313 0 .49.078.178.077.251.225.075.146.075.354 0 .25-.11.428-.109.178-.31.272-.199.094-.465.094l-.107-.001-.104-.003q-.044-.003-.06-.006v.647l.407.032v.158h-1.026v-.158Zm.374-.822q.036.006.105.01.068.003.162.003.136 0 .248-.056.114-.058.182-.191.069-.136.069-.371 0-.176-.055-.284-.053-.11-.162-.16-.11-.052-.28-.052-.064 0-.113.005l-.085.01-.071.005zm1.757 1.044q-.136 0-.251-.055-.116-.055-.186-.164t-.07-.274q0-.15.081-.255.082-.106.222-.172.14-.067.319-.098.18-.034.375-.037v-.099q0-.127-.027-.203t-.099-.11-.205-.033q-.175 0-.307.053-.13.053-.205.091l-.082-.168q.033-.03.134-.084t.246-.099q.146-.044.308-.044.218 0 .345.064.128.062.183.196.056.132.056.34v.953l.172.002v.144q-.034.008-.093.018t-.125.018q-.065.01-.12.01-.088 0-.123-.028-.035-.026-.035-.117v-.093q-.036.042-.11.1-.074.057-.175.101-.102.043-.228.043m.158-.224q.076 0 .168-.042.094-.044.164-.108v-.514q-.21 0-.346.049-.135.047-.2.127-.066.08-.066.18 0 .106.036.175.037.068.1.101.063.032.144.032m1.022.19v-.155l.215-.024v-1.248l-.209-.054v-.177l.44-.059h.01l.07.055v.06l-.01.268h.01q.014-.03.056-.091.043-.06.113-.126t.168-.11q.098-.045.22-.045.042 0 .068.004.027.005.044.011v.368q-.022-.017-.07-.028-.047-.012-.125-.012-.112 0-.193.028-.08.025-.137.062-.056.036-.094.065v1.027l.365.028v.153zm1.301 0v-.158l.185-.027v-2.067l-.229-.033v-.142l.507-.062h.01l.07.05v1.483l-.007.178.658-.712-.232-.04v-.15h.761v.15l-.238.043-.414.428.563.877.179.024v.158h-.764v-.158l.177-.027-.4-.655-.291.302.008.14v.213l.206.027v.158zm2.617.034q-.262 0-.432-.111-.17-.113-.254-.31-.082-.198-.082-.456 0-.202.058-.365.06-.164.166-.278.108-.115.253-.176.146-.063.323-.063.291 0 .45.159.159.156.167.448 0 .094-.005.164t-.017.121h-1.018q.005.143.037.26.033.117.095.202.063.084.154.13.091.045.211.045.125 0 .252-.044.128-.045.198-.097l.064.141q-.052.055-.15.108-.097.052-.22.087-.121.035-.25.035m-.39-1.03.67-.002.004-.065q.003-.037.003-.067 0-.186-.07-.301-.07-.117-.237-.117-.076 0-.141.027t-.114.091-.08.169q-.028.106-.034.264m1.232.996v-.155l.214-.024v-1.248l-.208-.054v-.177l.439-.059h.01l.07.055v.06l-.009.268h.01q.013-.03.056-.091.042-.06.112-.126t.169-.11q.097-.045.219-.045.042 0 .068.004.027.005.044.011v.368q-.021-.017-.07-.028-.047-.012-.125-.012-.112 0-.193.028-.08.025-.136.062-.057.036-.094.065v1.027l.364.028v.153zm2.008-2.516-.33 1.045h-.17l.113-1.045zm.687 2.55q-.124 0-.241-.023t-.21-.052q-.093-.03-.144-.05v-.392h.217l.06.237q.019.027.068.055.048.027.114.044t.136.017q.111 0 .181-.03t.102-.083q.033-.053.033-.123 0-.085-.056-.143t-.16-.106q-.104-.05-.247-.108-.141-.058-.24-.13-.097-.074-.148-.173-.048-.098-.048-.235t.08-.239q.08-.103.222-.16t.327-.058q.137 0 .237.02t.169.042q.068.021.109.03v.385h-.202l-.065-.227q-.014-.024-.052-.044-.037-.02-.088-.032-.052-.013-.111-.013-.088 0-.155.027-.067.026-.103.074-.037.05-.037.114 0 .1.055.16.056.06.146.103.09.041.19.082.097.041.19.089.094.045.168.106.075.06.119.143.045.082.045.197 0 .145-.076.257-.076.111-.225.175-.147.064-.36.064m1.603-.034v-.158l.247-.03v-1.87l-.242-.037v-.163h.91v.163l-.295.038v1.867l.722-.029.198-.53.194.029-.1.72zm1.866 0v-.158l.23-.027v-1.242l-.22-.056v-.172l.5-.062h.009l.074.055v1.48l.225.024v.158zm.383-1.97q-.103 0-.156-.061-.053-.064-.053-.148 0-.096.057-.169.06-.072.177-.072h.003q.103 0 .156.062t.053.146q0 .095-.059.17-.058.073-.175.073zm.6 1.972v-.158l.248-.03v-1.283h-.269l-.001-.148.27-.059v-.144q0-.15.06-.277.059-.129.16-.225.103-.097.232-.15.129-.055.269-.055.076 0 .118.01.043.008.067.018l-.001.319q-.034-.026-.11-.044-.074-.02-.172-.019-.09-.001-.15.028-.058.029-.085.094t-.027.178v.263h.4v.21h-.4v1.288l.325.026v.158zm1.877.032q-.261 0-.431-.111-.17-.113-.254-.31-.082-.198-.082-.456 0-.202.058-.365.059-.164.165-.278.108-.115.254-.176.146-.063.322-.063.292 0 .45.159.16.156.167.448 0 .094-.004.164-.005.07-.017.121h-1.018q.004.143.036.26.034.117.096.202.062.084.153.13.092.045.212.045.124 0 .252-.044.128-.045.197-.097l.064.141q-.051.055-.149.108-.097.052-.22.087-.122.035-.25.035m-.389-1.03.669-.002.005-.065q.003-.037.003-.067 0-.186-.07-.301-.07-.117-.237-.117-.076 0-.142.027-.064.027-.114.091-.048.063-.079.169-.029.106-.035.264" style="font-weight:600;font-family:&quot;Merriweather 24pt&quot;;-inkscape-font-specification:&quot;Merriweather 24pt, Semi-Bold&quot;" transform="matrix(8.73731 0 0 8.6944 -523.176 -770.533)"/></g><path d="M28.972 172.007v-12.619l-1.57-.217v-.83h2.38q.652 0 1.106-.029.454-.04.967-.069.524-.04 1.363-.04 1.935 0 3.041.494 1.116.494 1.58 1.422.474.928.474 2.232 0 1.59-.75 2.715-.741 1.126-2.025 1.718-1.273.592-2.853.592-.375 0-.83-.01t-.81-.03-.453-.039v4.69l2.705.198v.83h-6.003v-.83zm1.62-5.658q.286.04.839.07.563.02 1.283.02 1.017-.01 1.896-.376.879-.375 1.422-1.264.543-.888.543-2.448 0-1.175-.415-1.877-.404-.71-1.254-1.026-.849-.316-2.162-.316-.464 0-.859.03-.385.029-.701.058t-.592.03zm8.995 6.665v-.81l1.56-.128v-8.679l-1.501-.336v-.859l2.478-.325h.06l.365.306v.335l-.04 1.758.04-.01q.089-.118.355-.484.277-.365.74-.78.465-.424 1.117-.73.661-.307 1.53-.307.276 0 .425.03.158.02.256.05v1.638q-.069-.049-.335-.108-.257-.06-.642-.06-.909 0-1.52.238-.603.237-1.018.553-.414.315-.72.562v7.189l2.567.167v.79zm7.889-5.52q0-1.342.424-2.398.435-1.057 1.156-1.788.73-.73 1.629-1.115.898-.385 1.836-.385 1.758 0 2.824.79 1.067.79 1.54 2.103.484 1.303.484 2.833 0 1.343-.424 2.41-.425 1.056-1.155 1.787-.731.73-1.63 1.115-.898.386-1.836.386-1.313 0-2.241-.455-.929-.464-1.501-1.254-.573-.8-.84-1.836-.266-1.037-.266-2.192m4.947 4.74q.987 0 1.698-.513.71-.523 1.086-1.54.375-1.017.375-2.518 0-.978-.177-1.847-.168-.878-.534-1.55-.365-.681-.967-1.066-.593-.395-1.462-.395-.997 0-1.708.513-.71.514-1.096 1.53-.375 1.018-.375 2.528 0 .978.178 1.857.177.878.543 1.56.375.671.977 1.056.613.385 1.462.385m7.622-.207v-13.962l-1.659-.177v-.711l2.824-.336h.04l.365.247v14.959l1.847.138v.83h-5.125v-.83zm4.345-4.532q0-1.343.424-2.4.435-1.056 1.156-1.787.73-.73 1.629-1.115.898-.385 1.836-.385 1.758 0 2.824.79 1.067.79 1.54 2.103.484 1.303.484 2.833 0 1.343-.424 2.41-.425 1.056-1.155 1.787-.731.73-1.63 1.115-.898.386-1.836.386-1.313 0-2.242-.455-.928-.464-1.5-1.254-.573-.8-.84-1.836-.266-1.037-.266-2.192m4.947 4.74q.987 0 1.698-.514.71-.523 1.086-1.54.375-1.017.375-2.518 0-.978-.178-1.847-.167-.878-.533-1.55-.365-.681-.967-1.066-.593-.395-1.462-.395-.997 0-1.708.513-.71.514-1.096 1.53-.375 1.018-.375 2.528 0 .978.178 1.857.177.878.543 1.56.375.671.977 1.056.612.385 1.462.385m11.108 6.082q-1.244 0-2.133-.218-.879-.217-1.432-.612-.553-.385-.81-.928-.246-.533-.246-1.185 0-.642.256-1.175.257-.533.682-.938.424-.395.908-.632-.444-.227-.691-.632-.237-.404-.237-.997 0-.444.217-.869.227-.424.583-.77.355-.355.77-.573-.908-.444-1.442-1.234-.523-.8-.523-1.935 0-1.195.642-2.044.642-.86 1.649-1.313 1.007-.454 2.083-.454.879 0 1.63.207.75.197 1.303.602.207-.207.82-.503.621-.306 1.401-.306h.553v1.451h-2.152q.177.237.306.553.138.316.207.681.07.356.07.75 0 1.215-.593 2.114t-1.59 1.392q-.987.494-2.172.494-.395 0-.77-.04-.366-.05-.711-.138-.346.266-.602.632-.257.355-.257.75 0 .76.484.988.493.217 1.658.217h2.36q1.244 0 2.024.335.79.326 1.156.929.365.602.365 1.402 0 .82-.444 1.53-.435.72-1.225 1.274-.78.553-1.826.869-1.047.326-2.271.326m.108-.988q1.057 0 2.005-.316.948-.306 1.55-.879.602-.562.602-1.362 0-.543-.178-.938-.167-.395-.69-.612-.524-.208-1.57-.208h-2.44q-.404 0-.77-.02-.365-.02-.681-.088-.464.375-.71.908-.248.533-.248 1.244t.287 1.215q.296.513.977.78.681.276 1.866.276m.138-9.034q1.284 0 1.886-.721.613-.72.613-2.123 0-.918-.297-1.51-.296-.603-.878-.89-.573-.296-1.402-.296-.731 0-1.324.257-.582.247-.928.83-.345.572-.345 1.57 0 .819.266 1.47.277.652.87 1.037.592.376 1.54.376m15.858 4.897q-.474 0-.73-.168-.257-.158-.257-.661v-.78q-.395.355-.968.74-.563.385-1.234.652-.672.257-1.393.257-1.797 0-2.557-1.008-.76-1.007-.76-3.238v-5.796l-1.175-.336v-.71l2.38-.267h.039l.346.227v6.655q0 1.155.167 1.886.178.72.652 1.066.484.336 1.392.336.622 0 1.175-.208.553-.207 1.007-.493.455-.297.76-.563v-7.593l-1.49-.336v-.71l2.597-.267h.039l.444.227v10.061h1.215l-.02.73q-.326.09-.72.188-.396.11-.91.11m7.74.04q-1.55 0-2.616-.721-1.056-.73-1.6-2.014-.532-1.294-.532-2.973 0-1.283.375-2.33.385-1.046 1.066-1.807.682-.76 1.6-1.165.918-.414 1.984-.414 1.748 0 2.735.997.988.987 1.047 2.903 0 .563-.02.987-.02.415-.098.73h-6.991q0 .998.217 1.857.227.85.672 1.491.444.642 1.105.997.672.356 1.55.356.85 0 1.709-.306.869-.306 1.323-.701l.306.72q-.375.385-.987.701-.603.306-1.353.494-.74.198-1.491.198m-3.03-6.705 5.332-.01q.03-.158.04-.424.019-.267.019-.445 0-1.224-.573-2.034-.573-.82-1.886-.82-.602 0-1.116.208-.503.198-.888.642t-.622 1.155-.306 1.728zm19.708 6.705q-1.61 0-2.864-.524-1.244-.533-2.103-1.51-.859-.978-1.303-2.35-.444-1.383-.444-3.09 0-1.66.533-3.052t1.49-2.42q.959-1.026 2.232-1.589t2.775-.563q.671 0 1.293.08.632.078 1.175.197.553.109.988.207.434.099.7.148l-.157 3.22h-1.027l-.435-2.311q-.177-.158-.572-.296-.385-.139-.978-.228-.592-.088-1.362-.088-1.363 0-2.45.75-1.085.75-1.727 2.182-.632 1.422-.632 3.446 0 1.373.296 2.607.297 1.234.889 2.202.602.957 1.53 1.51.938.543 2.212.543.81 0 1.343-.098.533-.099.869-.267.345-.178.602-.385l.79-1.886.958.168-.494 2.646q-.385.01-.75.129-.366.118-.81.266-.434.138-1.056.247t-1.511.109m7.524-1.185v-13.982l-1.738-.177v-.711l2.893-.336h.05l.384.247v4.769l-.059 1.649q.366-.356 1.027-.74.662-.386 1.452-.652.79-.267 1.53-.267 1.244 0 1.925.484.692.484.948 1.5.267 1.018.267 2.627v5.579l1.461.148v.83h-4.364v-.83l1.313-.148v-5.599q0-1.135-.158-1.886-.148-.76-.632-1.125-.474-.365-1.441-.365-.553 0-1.155.197-.593.188-1.146.494-.553.296-.967.612v7.662l1.431.158v.83h-4.334v-.83zm14.396 1.185q-.87 0-1.61-.326t-1.204-1.007q-.454-.682-.454-1.748 0-1.027.562-1.718.573-.701 1.52-1.116.949-.424 2.114-.622 1.165-.197 2.38-.217v-.84q0-.967-.208-1.51-.197-.543-.71-.77-.504-.237-1.423-.237-1.145 0-2.014.385t-1.353.661l-.424-.849q.187-.178.82-.513.641-.346 1.53-.632t1.827-.286q1.303 0 2.073.375.78.375 1.116 1.214.335.83.335 2.202v6.477h1.215v.711q-.217.06-.533.129-.306.069-.652.118-.336.05-.632.05-.424 0-.632-.139-.207-.128-.207-.69v-.712q-.237.217-.74.602-.494.386-1.186.702-.68.306-1.51.306m.582-1.156q.613 0 1.373-.345.76-.356 1.353-.86v-3.485q-1.62.01-2.696.336-1.066.326-1.6.908-.533.573-.533 1.323 0 .78.277 1.254.276.465.75.672.484.197 1.076.197m6.201 5.698v-.84l1.501-.207v-13.33l-1.52-.335v-.86l2.497-.325h.06l.345.306v1.214q.336-.355.85-.72.513-.366 1.194-.613.681-.256 1.51-.256 1.107 0 2.084.552.988.553 1.6 1.738.622 1.175.622 3.061 0 1.264-.395 2.37-.395 1.096-1.126 1.935-.72.84-1.747 1.304-1.017.464-2.271.464-.543 0-1.156-.09-.612-.078-1.017-.226l.04 1.678v2.133l2.162.207v.84zm5.273-5.45q1.066 0 1.905-.524.85-.523 1.343-1.61.504-1.086.504-2.764 0-1.175-.257-2.015-.247-.849-.7-1.382-.445-.533-1.028-.79-.582-.256-1.244-.256-.622 0-1.155.187-.533.188-.938.454-.405.267-.632.514v7.504q.158.237.77.464.622.217 1.432.217m10.1.908q-.957 0-1.52-.445-.563-.454-.563-1.747v-7.781h-1.49v-.77l.404-.09.445-.108q.207-.059.286-.108.108-.07.178-.148.079-.08.138-.188.069-.118.128-.286.09-.237.208-.701.128-.474.237-.929l.167-.641h.88v2.814h3.445v1.155h-3.456v6.438q0 1.066.08 1.55.088.474.345.612.266.128.8.128.592 0 1.283-.167.701-.168 1.027-.326l.247.74q-.286.218-.82.445-.523.227-1.175.385-.641.168-1.273.168m8.532 0q-1.55 0-2.617-.721-1.056-.73-1.6-2.014-.533-1.294-.533-2.973 0-1.283.376-2.33.385-1.046 1.066-1.807t1.6-1.165q.918-.414 1.984-.414 1.748 0 2.735.997.988.987 1.047 2.903 0 .563-.02.987-.02.415-.099.73h-6.99q0 .998.217 1.857.227.85.671 1.491t1.106.997q.672.356 1.55.356.85 0 1.709-.306.869-.306 1.323-.701l.306.72q-.375.385-.988.701-.602.306-1.352.494-.74.198-1.491.198m-3.032-6.705 5.332-.01q.03-.158.04-.424.02-.267.02-.445 0-1.224-.573-2.034-.573-.82-1.886-.82-.602 0-1.116.208-.503.198-.888.642-.386.444-.622 1.155-.237.711-.307 1.728zm8.403 6.487v-.81l1.56-.128v-8.679l-1.5-.335v-.86l2.478-.325h.059l.365.306v.335l-.04 1.758.04-.01q.09-.118.356-.484.276-.365.74-.78.464-.424 1.116-.73.662-.307 1.53-.307.277 0 .425.03.158.02.257.05v1.638q-.07-.049-.336-.108-.257-.06-.642-.06-.908 0-1.52.238-.603.237-1.017.553-.415.316-.721.562v7.189l2.567.167v.79z" aria-label="Prologue Chapter" style="font-weight:300;font-size:19.7477px;font-family:&quot;Merriweather 24pt&quot;;-inkscape-font-specification:&quot;Merriweather 24pt, Light&quot;;stroke-width:1.57208" transform="matrix(.99976 0 0 1.00024 -14.486 -53.041)"/><path d="M19.982 149.627h180.076M17.365 150.103q268.33 0 0 0" style="fill:#000;stroke-width:.264583" transform="translate(-14.486 -53.041)"/><path d="M14.486 148.5h185.61" style="fill:#000;stroke:#000;stroke-width:.883;stroke-dasharray:none;stroke-opacity:1;stroke-dashoffset:0" transform="translate(-14.486 -53.041)"/></svg>